<svg width="157" height="36" xmlns="http://www.w3.org/2000/svg"><g fill="none" fill-rule="evenodd"><g fill="#FFF"><path d="M42 32.013v-6.672h1.64c2.02 0 3.1 1.282 3.1 3.362 0 2.09-1.08 3.31-3.06 3.31H42zm.83-.68h.75c1.53 0 2.3-.97 2.3-2.63 0-1.65-.77-2.682-2.3-2.682h-.75v5.312zm5.192.68v-4.86h.82v4.86h-.82zm.486-5.953c-.32 0-.57-.22-.57-.53 0-.32.25-.53.57-.53.32 0 .57.21.57.53 0 .31-.25.53-.57.53zm3.495 7.976c-1.19 0-2-.426-2-1.266 0-.41.27-.8.71-1.1v-.04a.897.897 0 01-.43-.79c0-.41.28-.73.53-.9v-.04c-.32-.26-.63-.577-.63-1.157 0-1.06.84-1.73 1.83-1.73.27 0 .51.05.69.12h1.69v.63h-1c.23.22.4.59.4 1 0 1.04-.79 1.537-1.78 1.537-.24 0-.51-.06-.73-.17-.17.15-.31.31-.31.58 0 .31.2.53.86.53h.94c1.13 0 1.7.35 1.7 1.16 0 .9-.96 1.636-2.47 1.636zm.01-4.286c.56 0 1.03-.297 1.03-1.007s-.46-1.13-1.03-1.13c-.57 0-1.03.42-1.03 1.13s.47 1.007 1.03 1.007zm.11 3.716c.93 0 1.55-.436 1.55-.946 0-.45-.35-.6-.98-.6h-.84c-.19 0-.42-.02-.63-.08-.35.25-.5.54-.5.82 0 .52.52.806 1.4.806zm3.887-1.546v-4.86h.82v4.86h-.82zm.38-5.86c-.32 0-.57-.22-.57-.53 0-.32.25-.53.57-.53.32 0 .57.21.57.53 0 .31-.25.53-.57.53zm4.005 5.963c-1.04 0-1.39-.66-1.39-1.62v-2.69h-.72v-.62l.76-.05.1-1.03h.69v1.03h1.173v.67h-1.173v2.7c0 .6.19.94.75.94.17 0 .39-.07.55-.13l.16.62c-.27.09-.6.18-.9.18zm3.213.037c-.81 0-1.42-.51-1.42-1.38 0-1.06.91-1.59 2.98-1.82 0-.62-.2-1.22-1-1.22-.56 0-1.07.26-1.45.52l-.32-.57c.45-.29 1.13-.63 1.91-.63 1.19 0 1.69.79 1.69 2v2.98h-.68l-.07-.58h-.03c-.46.38-1 .7-1.61.7zm.24-.66c.47 0 .85-.23 1.32-.65V29.4c-1.62.2-2.18.6-2.18 1.22 0 .55.38.78.86.78zm4.236.54c-.62 0-.87-.39-.87-1.1l-.11-5.84h.82l.11 5.9c0 .26.11.36.23.36.05 0 .09 0 .18-.02l.11.62c-.11.05-.25.08-.47.08zm4.986.063v-6.92h1.87c1.47 0 2.46.59 2.46 2.03 0 1.38-.98 1.84-2.42 1.84H73.9v3.05h-.83zm.83-3.73h.98c1.14 0 1.69-.23 1.69-1.16 0-.95-.58-1.36-1.73-1.36h-.94v2.52zm6.007 3.72c-.62 0-.87-.39-.87-1.1v-5.88h.82v5.94c0 .26.11.36.23.36.05 0 .09 0 .18-.02l.11.62c-.11.05-.25.08-.47.08zm2.696.02c-.81 0-1.42-.51-1.42-1.38 0-1.06.91-1.59 2.98-1.82 0-.62-.2-1.22-1-1.22-.56 0-1.07.26-1.45.52l-.32-.57c.45-.29 1.13-.63 1.91-.63 1.19 0 1.69.79 1.69 2v2.98h-.68l-.07-.58h-.03c-.46.38-1 .7-1.61.7zm.24-.66c.47 0 .85-.23 1.32-.65v-1.35c-1.62.2-2.18.6-2.18 1.22 0 .55.38.78.86.78zm5.554.67c-1.04 0-1.39-.66-1.39-1.62v-2.69h-.72v-.62l.76-.05.1-1.03h.69v1.03h1.173v.67h-1.173v2.7c0 .6.19.94.75.94.17 0 .39-.07.55-.13l.16.62c-.27.09-.6.18-.9.18zm4.633-6.78l.095.63c-.18-.08-.37-.12-.55-.12-.46 0-.68.32-.68.94v.46h1.03v.67h-1.03v4.19h-.82v-4.19h-.66v-.62l.66-.05v-.46c0-.99.45-1.61 1.42-1.61.3 0 .315.07.535.16zm3.471 6.77c-1.19 0-2.25-.93-2.25-2.54 0-1.63 1.06-2.56 2.25-2.56s2.25.93 2.25 2.56c0 1.61-1.06 2.54-2.25 2.54zm0-.68c.84 0 1.4-.75 1.4-1.86 0-1.12-.56-1.88-1.4-1.88-.83 0-1.4.76-1.4 1.88 0 1.11.57 1.86 1.4 1.86zm3.48.69v-4.86h.68l.07.88h.03c.33-.61.83-1 1.38-1 .21 0 .36.03.52.1l-.16.72a1.36 1.36 0 00-.47-.08c-.41 0-.9.3-1.23 1.12v3.12h-.82zm4.14-.01v-4.86h.68l.07.7h.03c.42-.46.93-.82 1.51-.82.74 0 1.14.35 1.34.93.51-.55 1.01-.93 1.6-.93 1 0 1.48.66 1.48 1.9v3.08h-.82v-2.97c0-.91-.29-1.3-.9-1.3-.38 0-.77.25-1.22.75v3.52h-.82v-2.97c0-.91-.29-1.3-.91-1.3-.36 0-.77.25-1.22.75v3.52h-.82z"></path><path d="M42 32.013v-6.672h1.64c2.02 0 3.1 1.282 3.1 3.362 0 2.09-1.08 3.31-3.06 3.31H42zm.83-.68h.75c1.53 0 2.3-.97 2.3-2.63 0-1.65-.77-2.682-2.3-2.682h-.75v5.312zm5.192.68v-4.86h.82v4.86h-.82zm.486-5.953c-.32 0-.57-.22-.57-.53 0-.32.25-.53.57-.53.32 0 .57.21.57.53 0 .31-.25.53-.57.53zm3.495 7.976c-1.19 0-2-.426-2-1.266 0-.41.27-.8.71-1.1v-.04a.897.897 0 01-.43-.79c0-.41.28-.73.53-.9v-.04c-.32-.26-.63-.577-.63-1.157 0-1.06.84-1.73 1.83-1.73.27 0 .51.05.69.12h1.69v.63h-1c.23.22.4.59.4 1 0 1.04-.79 1.537-1.78 1.537-.24 0-.51-.06-.73-.17-.17.15-.31.31-.31.58 0 .31.2.53.86.53h.94c1.13 0 1.7.35 1.7 1.16 0 .9-.96 1.636-2.47 1.636zm.01-4.286c.56 0 1.03-.297 1.03-1.007s-.46-1.13-1.03-1.13c-.57 0-1.03.42-1.03 1.13s.47 1.007 1.03 1.007zm.11 3.716c.93 0 1.55-.436 1.55-.946 0-.45-.35-.6-.98-.6h-.84c-.19 0-.42-.02-.63-.08-.35.25-.5.54-.5.82 0 .52.52.806 1.4.806zm3.887-1.546v-4.86h.82v4.86h-.82zm.38-5.86c-.32 0-.57-.22-.57-.53 0-.32.25-.53.57-.53.32 0 .57.21.57.53 0 .31-.25.53-.57.53zm4.005 5.963c-1.04 0-1.39-.66-1.39-1.62v-2.69h-.72v-.62l.76-.05.1-1.03h.69v1.03h1.173v.67h-1.173v2.7c0 .6.19.94.75.94.17 0 .39-.07.55-.13l.16.62c-.27.09-.6.18-.9.18zm3.213.037c-.81 0-1.42-.51-1.42-1.38 0-1.06.91-1.59 2.98-1.82 0-.62-.2-1.22-1-1.22-.56 0-1.07.26-1.45.52l-.32-.57c.45-.29 1.13-.63 1.91-.63 1.19 0 1.69.79 1.69 2v2.98h-.68l-.07-.58h-.03c-.46.38-1 .7-1.61.7zm.24-.66c.47 0 .85-.23 1.32-.65V29.4c-1.62.2-2.18.6-2.18 1.22 0 .55.38.78.86.78zm4.236.54c-.62 0-.87-.39-.87-1.1l-.11-5.84h.82l.11 5.9c0 .26.11.36.23.36.05 0 .09 0 .18-.02l.11.62c-.11.05-.25.08-.47.08zm4.986.063v-6.92h1.87c1.47 0 2.46.59 2.46 2.03 0 1.38-.98 1.84-2.42 1.84H73.9v3.05h-.83zm.83-3.73h.98c1.14 0 1.69-.23 1.69-1.16 0-.95-.58-1.36-1.73-1.36h-.94v2.52zm6.007 3.72c-.62 0-.87-.39-.87-1.1v-5.88h.82v5.94c0 .26.11.36.23.36.05 0 .09 0 .18-.02l.11.62c-.11.05-.25.08-.47.08zm2.696.02c-.81 0-1.42-.51-1.42-1.38 0-1.06.91-1.59 2.98-1.82 0-.62-.2-1.22-1-1.22-.56 0-1.07.26-1.45.52l-.32-.57c.45-.29 1.13-.63 1.91-.63 1.19 0 1.69.79 1.69 2v2.98h-.68l-.07-.58h-.03c-.46.38-1 .7-1.61.7zm.24-.66c.47 0 .85-.23 1.32-.65v-1.35c-1.62.2-2.18.6-2.18 1.22 0 .55.38.78.86.78zm5.554.67c-1.04 0-1.39-.66-1.39-1.62v-2.69h-.72v-.62l.76-.05.1-1.03h.69v1.03h1.173v.67h-1.173v2.7c0 .6.19.94.75.94.17 0 .39-.07.55-.13l.16.62c-.27.09-.6.18-.9.18zm4.633-6.78l.095.63c-.18-.08-.37-.12-.55-.12-.46 0-.68.32-.68.94v.46h1.03v.67h-1.03v4.19h-.82v-4.19h-.66v-.62l.66-.05v-.46c0-.99.45-1.61 1.42-1.61.3 0 .315.07.535.16zm3.471 6.77c-1.19 0-2.25-.93-2.25-2.54 0-1.63 1.06-2.56 2.25-2.56s2.25.93 2.25 2.56c0 1.61-1.06 2.54-2.25 2.54zm0-.68c.84 0 1.4-.75 1.4-1.86 0-1.12-.56-1.88-1.4-1.88-.83 0-1.4.76-1.4 1.88 0 1.11.57 1.86 1.4 1.86zm3.48.69v-4.86h.68l.07.88h.03c.33-.61.83-1 1.38-1 .21 0 .36.03.52.1l-.16.72a1.36 1.36 0 00-.47-.08c-.41 0-.9.3-1.23 1.12v3.12h-.82zm4.14-.01v-4.86h.68l.07.7h.03c.42-.46.93-.82 1.51-.82.74 0 1.14.35 1.34.93.51-.55 1.01-.93 1.6-.93 1 0 1.48.66 1.48 1.9v3.08h-.82v-2.97c0-.91-.29-1.3-.9-1.3-.38 0-.77.25-1.22.75v3.52h-.82v-2.97c0-.91-.29-1.3-.91-1.3-.36 0-.77.25-1.22.75v3.52h-.82z"></path></g><g fill="#FFF" fill-rule="nonzero"><path d="M33 19.695c0-.916-.178-1.787-.534-2.568L31.933 5l-.779 2.233c-.022.045-.267.737-1.09 1.474l.134-3.283-.845 1.095c-.022.022-1.557 1.965-3.225 2.21-.244.045-.578 0-.956-.066-.89-.112-2.09-.29-3.67.268-2.223.781-3.424 3.64-3.49 3.774-.068-.134-1.268-2.993-3.492-3.774-1.557-.559-2.78-.38-3.67-.268-.378.044-.734.111-.956.067-1.646-.246-3.202-2.19-3.225-2.211l-.867-1.095.134 3.283c-.823-.714-1.09-1.43-1.09-1.474L4.067 5l-.533 12.127A6.656 6.656 0 003 19.717c0 .715.111 1.407.334 2.055l-.267 6.588.2.134c.044.044 1.245.87 3.358.915.645 0 1.29-.156 1.957-.312 1.023-.268 2.202-.559 3.78-.402 2.491.223 5.56 3.238 5.65 3.305.066-.067 3.157-3.104 5.648-3.305 1.6-.134 2.757.156 3.78.402.69.178 1.335.335 1.957.312 2.113-.044 3.314-.87 3.358-.915l.2-.134-.289-6.61c.2-.648.334-1.34.334-2.055zm-.912 0c0 3.126-2.535 5.672-5.648 5.672-3.114 0-5.649-2.546-5.649-5.672 0-3.127 2.535-5.673 5.649-5.673 3.113 0 5.648 2.546 5.648 5.673zM4.801 8.84c.445.536 1.135 1.117 2.157 1.586 1.49.692 2.402.536 3.359.357.8-.134 1.623-.268 2.957.045 1.268.312 3.959 3.082 4.737 3.953.778-.871 3.47-3.64 4.737-3.953 1.334-.313 2.157-.179 2.958-.045.978.156 1.89.313 3.358-.357 1-.47 1.69-1.05 2.157-1.586l.289 6.678a6.52 6.52 0 00-5.07-2.412c-3.225 0-5.938 2.367-6.45 5.471-.355-.692-1.023-.915-1.934-.915-.957 0-1.646.268-2.002 1.05-.467-3.15-3.202-5.584-6.471-5.584-2.046 0-3.848.938-5.07 2.412l.288-6.7zm-.89 10.854c0-3.127 2.536-5.673 5.65-5.673 3.113 0 5.648 2.546 5.648 5.673 0 3.126-2.513 5.695-5.626 5.695-3.136 0-5.671-2.546-5.671-5.695zm28.11 8.196c-.378.2-1.29.603-2.646.625-.511 0-1.067-.134-1.735-.29-1.045-.268-2.335-.58-4.091-.425-2.491.224-4.893 2.48-5.56 3.172-.667-.693-3.091-2.948-5.56-3.172-1.757-.156-3.046.18-4.092.425-.645.156-1.223.29-1.734.29-1.357-.022-2.269-.424-2.647-.625l.2-4.467a6.547 6.547 0 005.404 2.859c3.07 0 5.649-2.122 6.36-4.98.49 1.831 2.113 3.685 2.113 3.685s1.535-1.742 2.069-3.529a6.549 6.549 0 006.315 4.824 6.547 6.547 0 005.404-2.859l.2 4.467z"></path><path d="M11.817 18.583c-.161.39-.55.665-.987.665a1.077 1.077 0 01-1.078-1.078c0-.459.276-.826.665-.987A2.425 2.425 0 009.5 17 2.506 2.506 0 007 19.5C7 20.876 8.124 22 9.5 22s2.5-1.124 2.5-2.5c0-.321-.069-.642-.183-.917zM28.817 18.583c-.161.39-.55.665-.987.665a1.077 1.077 0 01-1.078-1.078c0-.459.276-.826.665-.987A2.425 2.425 0 0026.5 17a2.506 2.506 0 00-2.5 2.5c0 1.376 1.124 2.5 2.5 2.5s2.5-1.124 2.5-2.5c-.023-.321-.069-.642-.183-.917z"></path></g><path d="M50.484 17.986v-2.058h-6.048v-4.053h4.935V9.817h-4.935V6.31h5.838V4.252H42v13.734h8.484zm3.827 0l1.638-3.234c.336-.714.651-1.407 1.008-2.247h.084c.42.84.756 1.533 1.113 2.247l1.68 3.234h2.709l-3.906-6.972 3.654-6.762h-2.583l-1.449 3.045c-.315.63-.588 1.281-.924 2.1h-.084c-.42-.819-.714-1.47-1.05-2.1l-1.512-3.045H51.98l3.654 6.657-3.906 7.077h2.583zm10.841 0l1.071-3.717h4.62l1.071 3.717h2.562L70.003 4.252h-2.856l-4.473 13.734h2.478zm5.145-5.628H66.79l.483-1.68c.441-1.449.84-3.003 1.218-4.536h.084c.399 1.512.798 3.087 1.239 4.536l.483 1.68zm7.985 5.628v-6.279c0-1.281-.21-3.108-.315-4.368h.084l1.092 3.192 2.268 6.174h1.449l2.247-6.174 1.113-3.192h.084c-.126 1.26-.315 3.087-.315 4.368v6.279h2.247V4.252h-2.772l-2.373 6.72c-.294.861-.567 1.785-.861 2.688h-.084c-.294-.903-.588-1.827-.882-2.688l-2.436-6.72h-2.751v13.734h2.205zm15.776 0V4.252h-2.436v13.734h2.436zm5.717 0V11.98c0-1.533-.21-3.192-.315-4.641h.084l1.407 2.919 4.284 7.728h2.499V4.252h-2.331v5.964c0 1.533.21 3.276.315 4.683h-.084l-1.407-2.919-4.284-7.728h-2.499v13.734h2.331zm12.038 0l1.071-3.717h4.62l1.071 3.717h2.562l-4.473-13.734h-2.856l-4.473 13.734h2.478zm5.145-5.628h-3.507l.483-1.68c.441-1.449.84-3.003 1.218-4.536h.084c.399 1.512.798 3.087 1.239 4.536l.483 1.68zm9.644 5.628V6.31h3.969V4.252h-10.374V6.31h3.969v11.676h2.436zm10.946.252c3.591 0 6.069-2.73 6.069-7.182 0-4.431-2.478-7.056-6.069-7.056-3.57 0-6.048 2.625-6.048 7.056 0 4.452 2.478 7.182 6.048 7.182zm0-2.121c-2.163 0-3.549-1.974-3.549-5.061 0-3.066 1.386-4.935 3.549-4.935 2.163 0 3.549 1.869 3.549 4.935 0 3.087-1.386 5.061-3.549 5.061zm11.156 1.869V12.61h2.1l2.961 5.376h2.73l-3.276-5.733c1.638-.567 2.73-1.827 2.73-3.927 0-3.066-2.184-4.074-5.04-4.074h-4.641v13.734h2.436zm1.953-7.308h-1.953V6.205h1.953c1.869 0 2.898.546 2.898 2.121 0 1.554-1.029 2.352-2.898 2.352z" fill="#FFF" fill-rule="nonzero"></path></g></svg>
